<?xml version="1.0" encoding="utf-8"?>
<!-- Generator: Adobe Illustrator 24.0.0, SVG Export Plug-In . SVG Version: 6.00 Build 0)  -->
<svg version="1.1" id="Layer_1" xmlns="http://www.w3.org/2000/svg" xmlns:xlink="http://www.w3.org/1999/xlink" x="0px" y="0px"
	 viewBox="0 0 595.28 536.38" style="enable-background:new 0 0 595.28 536.38;" xml:space="preserve">
<style type="text/css">
	.st0{fill:#F4080C;}
	.st1{fill:#FFFFFF;}
	.st2{font-family:'TimesNewRomanPSMT';}
	.st3{font-size:8.3842px;}
	.st4{fill:#70AD47;}
	.st5{fill:#E5BC0E;}
	.st6{fill:#A6A6A6;}
	.st7{fill:#06396D;}
	.st8{fill:#0371C0;}
	.st9{fill:#F1F1F1;}
	.st10{fill:#12B4EF;}
	.st11{fill:#68CDF3;}
	.st12{fill:#43B0FD;}
	.st13{fill:#71AD49;}
	.st14{fill:#FA0808;}
	.st15{font-size:7.4053px;}
	.st16{fill:#F2F2F2;}
	.st17{fill:#033861;}
	.st18{font-size:9px;}
</style>
<path class="st0" d="M428.63,175.05c-3.05,0.58-6.25,1.04-9.3,0.7c-1.97-0.22-3.78-1.91-6.52-2.55c6.73,11.04-3.35,20.31-1.17,31.51
	c-2.46-1.38-3.81-2.14-4.45-2.49c-0.95,2.8-1.2,6.41-3.13,8.45c-2,2.12-5.62,2.72-9.12,4.24c0.01,0.13,0.11,1.19,0.22,2.59
	c-1.9-0.3-3.43-0.55-4.52-0.73c-0.3,4.95-0.6,9.86-0.89,14.65c-5.7,3.28-6.02-5.26-10.48-4.17c-0.79,5.11-1.27,5.28-7.98,2.62
	c-1.6,5.3-2.12,7-7.62,6.72c-2.59-0.13-6.29-0.7-11.75-1.55c-0.29,2.96-0.58,5.93-0.88,9.03c-1.58-0.3-2.81-0.53-4.04-0.77
	c-0.68-3.18-1.56-6.34-2-9.56c-0.32-2.39-0.06-4.87-0.06-7.49c-2.18-0.89-4.73-1.93-7.28-2.97c-0.46-1.39-0.93-2.78-1.52-4.56
	c1.44-0.14,2.81-0.28,4.26-0.42c-2.19-4.2,4.16-10.26-3.44-13.29c1.66-2.59,4.42-5.03,0.99-8.12c-0.38-0.35,0.58-2.03,0.68-3.12
	c0.14-1.43,0.47-3.99-0.01-4.17c-4.16-1.6-3.73-5.86-5.27-8.83c-2.08-4.01-3.94-7.46-9.25-7.43c-1,0-2.71-1.95-2.9-3.18
	c-0.87-5.77-1.32-11.61-1.92-17.43c2.67-0.99,5.29-2.65,8.01-2.82c6.4-0.42,12.72-1.75,19.33,0.2c3.36,0.99,6.87,2.76,10.48,2.85
	c2.22,0.07,4.48-0.52,6.75-2.33c0.57-0.45,2.57,0.84,3.87,1.39c1.14,0.48,3.17,1.63,3.23,1.53c2.59-4.22,7.16-2.95,10.73-3.5
	c5.92-0.91,12.05-1.13,18.02-0.73c2.65,0.18,5.09,2.69,7.72,3.93c5.4,2.53,11.44,4.16,16.12,7.63c3.2,2.37,4.68,7.16,6.6,11.03
	C430.48,172.59,429.35,174.91,428.63,175.05z"/>
<g>
	<text transform="matrix(1 0 0 1 363.8262 190.0199)" class="st1 st2 st3">Sylhet</text>
</g>
<path class="st4" d="M246.57,118.16c-1.58,5-3.19,9.99-4.79,14.98c-5.11,1.84-9.05,4.38-7.1,10.9c0.23,0.77-0.19,2.36-0.78,2.66
	c-7.06,3.66-7.11,10.04-6.72,16.64c-5.55-0.69-11.1-1.3-16.62-2.16c-0.91-0.14-1.64-1.36-2.48-2.05c-1.09-0.89-2.1-2.3-3.33-2.53
	c-5.44-1-8.63-4.47-8.44-9.82c-5.01-1.14-10.05-2.29-15.09-3.43c-5.57-2.86-11.2-5.52-9.47-13.66c0.31-1.47-1.15-3.78-2.47-4.91
	c-0.66-0.57-3.03,0.33-4.31,1.1c-4.17,2.54-9.34,1.96-13.05-0.95c-1.25-0.97-2.33-2.21-3.16-3.69c-0.72-1.29-2.74-1.85-4.48-2.95
	c0.15-1.1,0.34-2.5,0.37-2.72c-4.98-4.45-9.3-8.31-13.62-12.17c0.33-0.36,0.65-0.73,0.97-1.1c-3.19,0.98-6.38,1.96-9.98,3.06
	c-0.6-3.53-1.23-7.23-2.09-12.25c1.39-1.6,3.95-4.29,6.15-7.25c0.55-0.74-0.02-2.33-0.13-3.53c-0.18-1.86-1.21-4.23-0.42-5.45
	c1.18-1.82,3.83-4.2,5.48-3.94c4.98,0.79,5.55-2.94,7.14-5.69c0.54-0.94,0.46-2.24,0.61-3.11c3.88-1.61,7.5-3.11,11.16-4.63
	c-1.41-6.32-4.18-9.38-8.9-9.18c-0.79,0.03-1.52,1.71-2.26,2.62c-3.3-2.99-1.12-10.42,5.1-14.82c-0.91,4.71,1.02,7.52,4.96,9.07
	c2.81,1.09,3.38,7.32,8.83,2.8c-0.83,4.56,0.9,6.49,4.91,6.18c-0.17,1.7-0.3,3.06-0.44,4.48c3.36-0.5,4.09-0.04,9.46,5.92
	c3.15-1.46,5.97-2.85,9.07,0.81c1.12,1.33,4.5,0.74,7.38,0.04c-2.07-2.02-3.86-4.51-6.26-5.98c-4.2-2.56-4.45-3.43-0.72-6.77
	c2.92,1.17,5.7,2.28,8.1,3.24c1.41,3.6,4.57,7.62,3.97,10.97c-1.06,5.95,2.01,7.98,5.46,9.86c1.01,0.55,2.04,1.09,3.02,1.71
	c2.08,1.33,4,2.91,6.01,4.35c0.39,0.28,1.07,0.74,1.3,0.6c6.34-3.97,9.65,3.95,14.01,3.82c1.32-2,2.53-3.35,3.16-4.93
	c0.43-1.09,0.26-2.54-0.01-3.75c-0.25-1.17-0.98-2.23-1.84-4.08c3.34,0,5.78-0.2,8.18,0.05c3.59,0.37,5.52,1.37,5.49,6.21
	c-0.03,3.51,3.78,7.06,6.44,11.52c-0.91,2.02-2.54,5.64-4.24,9.44c1.14,0.55,3.13,1.28,3.08,1.5c-1.17,4.7,1.38,8.27,3.38,12.01
	C246.69,117.45,246.66,117.86,246.57,118.16z"/>
<path class="st0" d="M198.58,78.75l-1.34,1.82c0,0-16.19-2.8-19.86-2.8c-3.68,0-12.55,5.07-15.09,7.48
	c-2.53,2.41-6.59,5.25-6.59,5.25l2.18,36.89c0,0-2.47-1.01-5.96-2.46c-1.25-0.97-2.33-2.21-3.16-3.69
	c-0.72-1.29-2.74-1.85-4.48-2.95c0.15-1.1,0.34-2.5,0.37-2.72c-4.98-4.45-9.3-8.31-13.62-12.17c0.33-0.36,0.65-0.73,0.97-1.1
	c-3.19,0.98-6.38,1.96-9.98,3.06c-0.6-3.53-1.23-7.23-2.09-12.25c1.39-1.6,3.95-4.29,6.15-7.25c0.55-0.74-0.02-2.33-0.13-3.53
	c-0.18-1.86-1.21-4.23-0.42-5.45c1.18-1.82,3.83-4.2,5.48-3.94c4.98,0.79,5.55-2.94,7.14-5.69c0.54-0.94,0.46-2.24,0.61-3.11
	c3.88-1.61,7.5-3.11,11.16-4.63c-1.41-6.32-4.18-9.38-8.9-9.18c-0.79,0.03-1.52,1.71-2.26,2.62c-3.3-2.99-1.12-10.42,5.1-14.82
	c-0.91,4.71,1.02,7.52,4.96,9.07c2.81,1.09,3.38,7.32,8.83,2.8c-0.83,4.56,0.9,6.49,4.91,6.18c-0.17,1.7-0.3,3.06-0.44,4.48
	c3.36-0.5,4.09-0.04,9.46,5.92c3.15-1.46,5.97-2.85,9.07,0.81c1.12,1.33,4.5,0.74,7.38,0.04c-2.07-2.02-3.86-4.51-6.26-5.98
	c-4.2-2.56-4.45-3.43-0.72-6.77c2.92,1.17,5.7,2.28,8.1,3.24c1.41,3.6,4.57,7.62,3.97,10.97C192.06,74.84,195.13,76.87,198.58,78.75
	z"/>
<path class="st5" d="M438.06,412.21c0.22-3.84,1.85-7.76,1.35-11.44c-0.76-5.64-2.81-11.11-4.31-16.65
	c2.42-0.83,3.49-1.03,2.39-4.83c-1.54-5.36-2.47-10.9-3.3-16.47c-0.58-3.86-1.11-7.73-1.76-11.57c-0.48-2.84-0.82-5.72-1.54-8.49
	c-0.82-3.18-2.67-6.22-2.86-9.39c-0.29-4.96-2.84-7.76-5.93-9.09c-0.69-6.44-1.43-12.03-1.78-17.64c-0.1-1.44,1.03-2.96,2.04-5.62
	c-2.8-10.62-6-22.74-9.2-34.86h-0.99c-0.57,1.87-1.14,3.74-1.77,5.8c-1.38-2.41-2.67-4.68-3.74-6.55c-2.91,2.45-5.48,4.62-8.05,6.79
	c-0.37,0.47-0.74,0.94-1.11,1.41c-1.19-1.2-2.38-2.4-3.59-3.62c-0.87-0.89-1.76-1.78-2.66-2.69c-0.93,1.85-1.12,4.49-0.68,7.52
	c0.07,0.59,0.18,1.19,0.31,1.81c0.79,3.77,2.45,8.08-0.74,11.45c-2.73,2.88-6.11,5.16-9.25,7.65c-2.43,1.94-2.71,3.95-1.52,6.96
	c1.59,4,3.49,8.44,3.12,12.5c-0.45,4.98-11.75,8.58-16.24,5.8c-0.58-0.36-1.1-0.93-1.53-1.56c-0.31-0.47-0.58-0.97-0.77-1.45
	c-2.23-5.5-4.2-11.11-6.51-16.58c-0.45-1.06-2.02-1.65-3.08-2.46c-0.68,1.05-1.88,2.06-1.96,3.15c-0.26,3.45-0.1,6.92-0.1,10.38
	c-0.55,0.15-1.1,0.31-1.65,0.46c-1.86-14.52-3.7-29.06-14.61-40.37c3.61-2.66,6.05-5.48-0.19-8.89c2.42-0.21,3.68-0.31,5.01-0.43
	c0.72-2.95,2.62-6.17,1.87-8.57c-1.46-4.65,1.91-5.21,4.27-6.65v-4.72c-0.68-3.18-1.56-6.34-2-9.56c-0.32-2.39-0.06-4.87-0.06-7.49
	c-2.18-0.89-4.73-1.93-7.28-2.97c-5.61-1.04-8.19,4.55-12.72,5.96c-0.5,0.16-0.96,3.02-0.48,3.39c4.91,3.8,0.74,5.49-1.59,7.63
	c-1.76,6.47-4.88,11.28-11.74,14.01c-2.84,1.13-4.2,6.08-6.15,9.35c-0.87,1.46-1.14,3.65-2.37,4.46c-4.11,2.69-4.65,4.36-1.84,8.45
	c0.79,1.15,1.6,2.29,3.21,4.61c-6.28-0.33-10.39,1.43-12.21,6.57c0.72,2.79,1.44,5.58,2.15,8.37c3.09,4.26,1.55,8.36-0.45,12.44
	c-0.86,1.75-1.77,3.47-2.66,5.21c2.08,2.23,3.84,4.94,6.31,6.6c5.86,3.94,8.53,9.07,7.59,16.07c0.35,0.55,0.57,1.31,1.07,1.62
	c4.96,3.13,9.02,6.29,9.98,13.12c0.88,6.29,4.6,6.91,10.03,3.06c1.91-1.35,3.36-2.09,6.11-0.75c5.17,2.52,12.11-1.06,13.14-4.93
	c5.07-3.43,9.34-6.31,13.95-9.43c0.01,0.01,0.02,0.03,0.03,0.04c3.8,4.38,8.5,9.1,12.3,14.46c3.04,4.28,5.46,9.18,7.26,14.12
	c0.68,1.85,1.33,3.72,1.96,5.6c0,0,0,0,0,0.01c0.97,2.9,1.88,5.82,2.69,8.76c0.72,2.63,1.37,5.27,1.91,7.92
	c1.44,7.02,6.97,13.64,2.73,21.39c1.06-0.24,2.52,3.41,3.35-0.42c0.16-0.73,1.93-1.12,3.33-1.87c-2.4,4.5-4.48,8.38-6.55,12.27
	c-0.72,3.13-1.43,6.26-2.39,10.45c1.74,0.71,4.13,1.68,6.51,2.65c0.56-0.27,1.12-0.53,1.67-0.79c1.44,7.06,2.82,14.14,4.37,21.18
	c0.23,1,1.28,1.8,1.89,2.74c2.93,4.55,6.04,9,8.71,13.7c3.59,6.33,6.84,12.86,10.23,19.31c0.44-0.06,0.89-0.13,1.33-0.19
	c-2.43-5.77-6.19-11.37-6.91-17.34c-0.7-5.76-1.92-10.69-5.37-15.19c-0.26-0.34-0.24-0.87-0.36-1.35c2.95-2.49,5.86-4.87,2.9-9.19
	c-0.43-0.62,0.1-2.24,0.64-3.1c1.24-1.96,2.77-3.74,4.02-5.37c1.44-0.72,3.07-1.22,4.31-2.21c2.74-2.19,5.8-1.7,6.15,1.57
	c0.49,4.51,2.62,3.98,5.09,2.09c2.54-1.93,3.77-1.4,4.45,1.49c0.57,2.45,1.12,4.92,1.73,7.59c2.37-1.74,4.26-3.13,6.11-4.49
	C439.27,434.23,437.41,423.39,438.06,412.21z M336.68,335.1c-0.91-1.82-1.48-4.41-0.83-6.2c0.46-1.28,3.13-1.76,4.82-2.6
	c-0.04,0.35-0.08,0.7-0.12,1.04c-1.2,1.32-3.26,2.57-3.36,3.97c-0.09,1.22,2.01,2.6,3.58,4.43
	C339.61,335.6,337.07,335.89,336.68,335.1z M347.52,336.26c-0.37-2.35-0.63-3.99-0.89-5.63c-0.38-0.1-0.76-0.2-1.14-0.3
	c-0.56,1.57-1.12,3.15-2.12,5.95V327C348.94,332.32,348.94,332.32,347.52,336.26z M369.66,337.51c-0.62-2.07-0.32-4.44-0.19-6.69
	c0.02-0.34,1.31-1.02,1.59-0.84c0.92,0.55,2,1.28,2.37,2.2c0.51,1.31,0.44,2.84,0.62,4.28c0.17,0.51,0.35,1.02,0.52,1.53
	C372.86,337.85,369.84,338.11,369.66,337.51z M391.43,330.21c0.21-0.73,2.73-0.79,4.08-1.12c1.19,2.68-2.68,5.1,0.7,7.04
	c-0.58,0.71-1.1,1.95-1.74,2.01c-1.16,0.12-3.4-0.37-3.44-0.75C390.83,335,390.77,332.47,391.43,330.21z M387.02,373.73
	c1.93-1.55,9.91,1.59,10.76,4.06c-3.23,0.42-6.46,0.98-9.71,1.14c-0.69,0.03-1.9-1.34-2.07-2.21
	C385.82,375.79,386.3,374.31,387.02,373.73z M419.44,380.11c-1.65-0.83-3.3-1.67-3.7-1.86c-5.55,0.41-10.19,0.76-14.8,1.1
	c-0.14,0.01-0.28,0.02-0.42,0.03c-0.26-0.84-0.52-1.68-0.77-2.52c1.33-0.69,2.65-1.91,4.01-1.97c2.12-0.09,4.24-0.13,6.42-0.13
	c3.34-0.02,6.82,0.03,10.67,0.03C420.35,376.68,419.9,378.39,419.44,380.11z"/>
<path class="st6" d="M187.99,412.3h0.06c0,0.02,0.01,0.04,0.01,0.06L187.99,412.3z"/>
<path class="st6" d="M215,403.43h-0.07c0-0.03,0.01-0.05,0.01-0.08L215,403.43z"/>
<path class="st5" d="M250.97,360.07c-0.67,2.81-2.54,5.34-3.89,8c-0.89,0.54-2.13,0.87-2.61,1.66c-1.08,1.75-1.78,3.74-2.64,5.62
	c-1.88-1.6-3.75-3.2-6.12-5.22c-4.4,2.68,2.26,5.46,0.46,8.68c-1.88,1.37-4.27,3.11-6.54,4.77v9.26h4.91
	c0.15,0.45,0.29,0.9,0.44,1.34c-1.16,0.51-2.32,1.02-3.48,1.52c-1.61,0.68-3.79,1.1-1.48,3.45c-0.54,1.18-1.08,2.36-1.65,3.61
	c-0.56-0.11-1.45-0.28-2.35-0.46l0.04,0.06c-0.35-0.34-0.69-0.68-1.04-1.03c-4.39-2.21-1.98-6.19-2.4-9.44
	c0.22-0.49,0.44-0.98,0.67-1.47c-0.05-1.66-0.03-3.33-0.17-4.98c-0.12-1.51-0.41-3.01-0.62-4.52c0.91-1.3,1.82-2.61,2.73-3.91
	c-0.39-0.27-0.79-0.53-1.19-0.8c-0.77,1.3-1.55,2.6-2.32,3.91c-0.27,1.53-0.8,3.08-0.73,4.59c0.09,1.9,0.69,3.78,1.06,5.67
	c-0.23,0.23-0.31,0.51-0.23,0.83c-0.87,1.9-1.75,3.8-2.62,5.7c-0.33-0.11-0.66-0.21-0.99-0.31v-2.22c1.73-3.97,0.76-6.9-2.36-8.41
	c-0.95,2.13-1.91,4.26-2.86,6.4c-0.97,1.33-2.88,2.79-2.72,3.98c0.33,2.42,1.76,4.68,2.74,7.02c0.65,0.02,1.28,0.04,1.92,0.06
	c-0.53,3.21-1.06,6.42-1.59,9.62c0.48,0.17,0.97,0.34,1.45,0.5c-1.7,2.02-3.4,4.03-5.46,6.47c-1.46-2.65-2.55-4.61-3.63-6.57
	c0.46-4.69,0.92-9.38,1.38-14.07c5.51-9.83-2.15-17-4.96-26.33c-0.7,2.02-1.57,3.36-1.25,3.76c4.34,5.47-1.23,8.52-2.91,12.49
	c-0.42,1.01-0.94,2-1.2,3.05c-0.92,3.62-1.75,7.27-2.62,10.91c-0.47-0.02-0.95-0.04-1.43-0.05c-0.17-1.77-0.35-3.54-0.52-5.3
	c-1.19,1.47-2.35,3.59-1.73,4.65c0.78,1.32,3.03,1.78,4.02,2.29c-0.85,2.48-1.68,4.89-2.5,7.29c-1.31,0.05-2.62,0.1-3.93,0.16
	c-0.09-0.62-0.16-1.24-0.25-1.85c-0.35-3.06-0.7-6.11-1.05-9.17c-0.23-2.62-0.41-5.24-0.69-7.85c-0.14-1.29-1.06-2.95-0.55-3.78
	c2.17-3.52-0.08-6.05-1.3-8.98c-1.62-3.91-3.17-7.91-4.12-12.02c-0.49-2.15,0.37-4.61,1.17-6.89c-2.41-5.3-6.32-10.45-3.35-17.22
	c0.19-0.43-0.71-1.27-0.96-1.97c-0.42-1.18-1.39-2.73-0.98-3.56c2.45-5.06-0.21-8.55-2.46-12.88c-4.6-8.84-2.7-13.58,6.69-21.57
	c0.17-0.23,0.35-0.46,0.52-0.69c-0.41-0.04-0.81-0.08-1.22-0.12c-1.21-0.09-2.43-0.13-3.63-0.27c-2.3-0.29-4.62-0.54-6.89-0.98
	c-2.01-0.39-4.61-0.42-5.78-1.68c-1.16-1.25-1.53-4.05-1.03-5.83c1.16-4.17,3.04-8.14,4.27-11.28c-2.74-1.72-5.38-3.05-7.62-4.87
	c-2.38-1.95-5.15-4.03-6.34-6.68c-1.18-2.65-0.88-6.1-0.77-9.18c0.11-3.36,0.76-6.71,1.27-10.83c-0.52,0.34-0.15-0.08,0.29-0.17
	c8.45-1.85,11.73-7.15,8.3-15.13c-1.48-3.45-0.4-5.4,1.23-7.8c4.31,1.42,8.58,3.89,12.93,4.01c5.9,0.17,9.05,2.2,10.68,7.77
	c1.2,4.09,6.56,7.49,9.54,5.91c5.07-2.7,8.45-0.36,11.94,2.66c-1.06,3.47-2.17,6.92-3.16,10.41c-1.45,5.15-0.08,6.83,4.88,8.91
	c2.82,1.18,5.36,3.59,7.32,6.02c1.54,1.91,1.43,6.15,3.07,6.8c4.67,1.84,3.8,5.71,4.75,9.02c0.57,2.02,0.96,4.33,2.2,5.89
	c2.87,3.6,3.83,7.47,3.98,11.99c0.09,2.5,1.54,5.14,2.91,7.39c3.03,5.03,6.4,9.85,10.04,15.37c0.95,0.42,2.97,1.34,4.98,2.25
	c0.03,0.33,0.08,0.66,0.07,0.99c-0.12,3.79-1.07,7.58-0.64,11.34c0.23,2.07,0.88,4.13,2.32,6.17
	C251.95,353.85,251.59,357.48,250.97,360.07z"/>
<path class="st0" d="M300.34,390.56c-0.98,1.38-1.97,2.77-2.95,4.15c3.5-14.61,8.95-29.25-0.75-43.5c-1.33,0.32-3.01,0.72-4.68,1.13
	c0,0,0.09,0.09,0.09,0.09c0.24-2.13,0.8-4.29,0.65-6.39c-0.45-6.2,2.82-8.47,9.17-8.61c0.14,6.05,5.04,8.79,10.22,11.3
	c-0.38,0.41-0.76,0.83-1.15,1.24c-0.88-0.22-1.76-0.44-4.15-1.04c2.18,3.44,3.12,6.49,5.19,7.86c3.92,2.6,3.61,5.87,3.02,9.53
	c-1.01,6.27-1.78,12.61-3.19,18.79c-0.51,2.22-2.38,4.28-4.02,6.06c-1.72,1.86-3.9,3.29-6.67,5.56c0.1-2.1,0.16-3.56,0.23-5.02
	c0.36-0.64,0.73-1.28,1.09-1.92c0.01-0.41,0.01-0.83,0.02-1.24c-0.27,0.16-0.54,0.31-0.81,0.47
	C301.22,389.53,300.78,390.05,300.34,390.56z"/>
<path class="st0" d="M326.84,393.45c-0.4-1.95-0.97-3.33-0.89-4.66c0.26-4.42,0.84-8.83,1.15-13.25c0.34-4.8,0.44-9.61,0.81-14.41
	c0.06-0.78,0.85-1.92,1.56-2.17c3.06-1.1,9.78,3.55,10.28,6.7c1.45,9.05-2.69,16.76-6.08,24.53
	C332.99,391.78,329.62,392.2,326.84,393.45z"/>
<path class="st0" d="M191.98,412.14c0.82-2.41,1.65-4.81,2.5-7.29c-0.98-0.51-3.24-0.97-4.01-2.29c-0.62-1.06,0.54-3.17,1.73-4.65
	c0.17,1.77,0.35,3.53,0.52,5.3c0.48,0.02,0.96,0.03,1.43,0.05c0.86-3.64,1.69-7.29,2.61-10.91c0.27-1.05,0.78-2.03,1.21-3.04
	c1.68-3.98,7.25-7.02,2.91-12.49c-0.32-0.4,0.54-1.74,1.24-3.76c2.82,9.33,10.48,16.49,4.97,26.33c-0.04-1.15-0.13-2.31-0.11-3.46
	c0.07-4.56-1.18-5.64-6.19-4.87c0.41,1.92,0.22,4.34,1.33,5.6c3.45,3.91,3.76,7.95,1.85,12.48c-2.54,0.81-4.99,1.14-3.17,5.23
	c0.91,2.04-0.2,5.28-1.15,7.68c-0.37,0.92-2.86,0.99-3.47,1.17c-0.72-4.15-1.25-7.47-1.97-10.75
	C194.14,412.21,192.75,412.24,191.98,412.14z"/>
<path class="st0" d="M230.02,399.15c-2.31-2.35-0.13-2.77,1.48-3.46c1.17-0.49,2.32-1.01,3.48-1.52c-0.15-0.45-0.29-0.89-0.44-1.34
	c-1.63,0-3.26,0-4.92,0c0-3.25,0-6.31,0-9.26c2.28-1.66,4.67-3.41,6.55-4.78c1.8-3.22-4.87-5.99-0.46-8.67
	c2.36,2.02,4.24,3.62,6.12,5.22c0.38,2.38,0.37,4.91,1.21,7.12c1.93,5.14,0.04,8.98-4.31,9.96c-0.54,3.73-1.03,7.06-1.59,10.93
	c0.11,0.06,1.36,0.71,3.06,1.6c-1.2,1.38-2.22,2.56-2.95,3.39c-2.18-1.38-4.07-2.57-6.33-4
	C230.69,403.03,230.35,401.09,230.02,399.15z M238.14,387.5c0.5-0.31,1.01-0.61,1.51-0.92c-0.82-1.27-1.64-2.54-2.47-3.82
	c-0.46,0.28-0.91,0.56-1.37,0.83C236.59,384.9,237.37,386.2,238.14,387.5z"/>
<path class="st0" d="M290.81,313.73c2.08,2.23,3.85,4.94,6.31,6.6c5.85,3.94,8.53,9.07,7.59,16.07c-2.84-1-5.68-2-8.52-2.99
	c0.73-1.21,1.46-2.42,2.65-4.39c-2.46,0-4.21-0.32-5.79,0.08c-2.31,0.58-4.49,1.66-6.73,2.53c-0.31-0.22-0.62-0.45-0.92-0.67
	c1.61-1.14,3.22-2.28,5.11-3.62c0.08-2.96,0.04-6.25-4.66-5.79c-0.68,1.59-1.24,2.89-1.8,4.18c-0.21-1.55-0.42-3.11-0.77-5.75
	c-2.69,0.85-5.06,1.59-7.44,2.34c-0.04-5.08,2.39-6.73,7.37-6.03C285.87,316.65,289.16,317.16,290.81,313.73z"/>
<path class="st0" d="M358.11,351.23c2.04,2.61,3.64,4.86,5.44,6.93c3.18,3.66,2.33,8.3-2.1,10.81
	C353.91,362.08,351.25,354.3,358.11,351.23z"/>
<path class="st0" d="M286.32,331.61c2.24-0.87,4.42-1.95,6.73-2.53c1.58-0.39,3.33-0.08,5.79-0.08c-1.19,1.97-1.92,3.18-2.65,4.39
	c-1.71,1.21-3.42,2.42-5.16,3.65c0.22,1.51,0.55,3.78,0.88,6.05c-0.4,0.11-0.81,0.23-1.21,0.34c-0.56-0.69-1.13-1.39-1.69-2.08
	C288.12,338.11,287.22,334.86,286.32,331.61z"/>
<path class="st0" d="M203.96,409.14c1.91-4.53,1.6-8.58-1.85-12.48c-1.11-1.26-0.92-3.68-1.33-5.6c5.01-0.77,6.26,0.31,6.19,4.87
	c-0.02,1.15,0.07,2.3,0.11,3.46c-0.46,4.69-0.92,9.38-1.38,14.07C205.12,412.01,204.54,410.57,203.96,409.14z"/>
<path class="st0" d="M226.02,402.3c-3.23,5.69,2.29,8.26,4.6,12c-6.05,1.65-7.17,1.01-9.25-4.96c-1.34-3.85-0.22-6.56,3.68-7.99
	c0,0-0.07-0.05-0.07-0.05c0.36,0.35,0.71,0.71,1.07,1.06L226.02,402.3z"/>
<path class="st0" d="M286.32,331.61c0.9,3.25,1.8,6.5,2.7,9.75c-0.57-0.01-1.14-0.02-1.71-0.03c-1.22-0.06-2.84-3.22-3.59,0.46
	c-1.49-0.6-3.86-0.83-4.29-1.87c-0.96-2.3-0.95-5-1.33-7.54c1.01-0.02,2.02-0.04,3.03-0.06c0.66,1.12,1.33,2.23,2.62,4.42
	c0.76-2.67,1.2-4.23,1.65-5.79C285.7,331.17,286.01,331.39,286.32,331.61z"/>
<path class="st0" d="M213.01,403.36c-0.98-2.33-2.42-4.6-2.74-7.02c-0.16-1.18,1.75-2.65,2.72-3.98c0.07,0.36,0.14,0.71,0.21,1.07
	c0.93,0.36,1.86,0.73,2.79,1.09l-0.16,0.03c0.46,2.27,1.1,4.52,1.26,6.81c0.04,0.61-1.39,1.32-2.15,1.99c0,0,0.06,0.08,0.06,0.08
	c-0.55-0.63-1.11-1.26-1.66-1.89C213.23,402.15,213.12,402.75,213.01,403.36z"/>
<path class="st0" d="M186.75,401.28c0.35,3.06,0.7,6.11,1.05,9.17c-0.55,0.39-1.1,0.78-1.65,1.17c0.64,0.25,1.27,0.49,1.91,0.74
	c0,0-0.07-0.06-0.07-0.06c0.54,0.95,1.25,1.84,1.57,2.86c0.19,0.61-0.24,1.4-0.39,2.11c-0.82-0.22-1.9-0.18-2.41-0.7
	c-2.59-2.63-3.29-5.73-1.77-9.2c0.05-0.66,0.1-1.31,0.15-1.97C185.67,404.02,186.21,402.65,186.75,401.28z"/>
<path class="st0" d="M387.87,411.39c1.06-0.24,2.53,3.4,3.35-0.42c0.16-0.74,1.93-1.13,3.33-1.87c-2.4,4.5-4.48,8.38-6.55,12.27
	c-4.21-0.46-4.11-2.97-2.7-5.92C385.99,414.01,387,412.74,387.87,411.39z"/>
<path class="st0" d="M280.88,404.68c1.15-2.98,2.29-5.96,3.93-10.22c1.13,2.4,3.14,4.77,2.59,5.89c-1.1,2.26-3.59,3.85-5.51,5.72
	C281.55,405.6,281.21,405.14,280.88,404.68z"/>
<path class="st0" d="M213.2,393.43c-0.07-0.36-0.14-0.71-0.21-1.07c0.95-2.13,1.9-4.26,2.86-6.4c3.13,1.52,4.09,4.44,2.37,8.41
	c-0.79,0.06-1.59,0.12-2.38,0.17c0,0,0.16-0.03,0.16-0.03C215.06,394.16,214.13,393.79,213.2,393.43z"/>
<path class="st0" d="M384.07,413.41c-0.07-2.94-0.31-5.88-0.12-8.81c0.08-1.28,1.04-2.5,2.15-3.55c2.23,4.77-0.65,8.46-2.09,12.42
	L384.07,413.41z"/>
<path class="st7" d="M185.14,405.4c-0.05,0.66-0.1,1.31-0.15,1.97C185.04,406.71,185.09,406.05,185.14,405.4z"/>
<polygon class="st0" points="384,413.48 383.87,413.5 384.07,413.41 "/>
<path class="st8" d="M420.85,374.79c-0.5,1.89-0.95,3.6-1.41,5.31c-1.65-0.83-3.31-1.66-3.7-1.86c-5.72,0.43-10.47,0.78-15.23,1.13
	c-0.26-0.84-0.52-1.68-0.77-2.52c1.34-0.69,2.65-1.92,4.02-1.98C409.12,374.65,414.49,374.79,420.85,374.79z"/>
<path class="st8" d="M397.78,377.79c-3.23,0.42-6.46,0.98-9.71,1.13c-0.69,0.03-1.9-1.33-2.07-2.21c-0.18-0.93,0.3-2.41,1.02-2.99
	C388.95,372.17,396.93,375.32,397.78,377.79z"/>
<path class="st8" d="M395.51,329.09c1.19,2.68-2.68,5.11,0.69,7.04c-0.57,0.71-1.09,1.95-1.74,2.01c-1.16,0.12-3.4-0.37-3.44-0.76
	c-0.21-2.39-0.26-4.92,0.39-7.18C391.64,329.48,394.16,329.42,395.51,329.09z"/>
<path class="st8" d="M374.57,337.99c-1.71-0.14-4.73,0.12-4.91-0.48c-0.62-2.07-0.33-4.44-0.19-6.69c0.02-0.34,1.3-1.02,1.59-0.85
	c0.92,0.55,2,1.29,2.36,2.21c0.51,1.31,0.44,2.84,0.62,4.28C374.22,336.97,374.4,337.48,374.57,337.99z"/>
<path class="st5" d="M347.52,336.25c-0.37-2.35-0.63-3.98-0.89-5.62c-0.38-0.1-0.76-0.2-1.14-0.3c-0.56,1.57-1.12,3.14-2.12,5.95
	c0-3.91,0-6.64,0-9.28C348.94,332.32,348.94,332.32,347.52,336.25z"/>
<path class="st5" d="M340.55,327.34c-1.2,1.32-3.26,2.57-3.36,3.96c-0.09,1.22,2.01,2.61,3.58,4.43c-1.16-0.15-3.71,0.14-4.09-0.64
	c-0.91-1.82-1.48-4.42-0.83-6.21c0.47-1.28,3.13-1.76,4.82-2.59C340.63,326.65,340.59,326.99,340.55,327.34z"/>
<path class="st0" d="M222.5,380.92c0.21,1.51,0.5,3.01,0.62,4.52c0.13,1.65,0.12,3.32,0.16,4.98c-0.41-0.01-0.82-0.03-1.24-0.04
	c-0.38-1.89-0.97-3.76-1.06-5.66c-0.07-1.52,0.46-3.06,0.73-4.6C221.98,380.38,222.24,380.65,222.5,380.92z"/>
<path class="st0" d="M221.72,380.11c0.77-1.3,1.55-2.6,2.32-3.9c0.4,0.27,0.79,0.53,1.19,0.8c-0.91,1.3-1.82,2.61-2.73,3.91
	C222.24,380.65,221.98,380.38,221.72,380.11z"/>
<path class="st9" d="M188.06,412.35c-0.64-0.25-1.27-0.49-1.91-0.74c0.55-0.39,1.1-0.78,1.65-1.17
	C187.89,411.08,187.97,411.72,188.06,412.35z"/>
<path class="st9" d="M213.01,403.36c0.11-0.61,0.22-1.22,0.33-1.82c0.55,0.63,1.11,1.26,1.66,1.89
	C214.34,403.41,213.68,403.38,213.01,403.36z"/>
<path class="st9" d="M222.05,390.37c0.41,0.01,0.82,0.03,1.24,0.04c-0.22,0.49-0.45,0.98-0.67,1.48c-0.26-0.23-0.53-0.46-0.79-0.68
	C221.74,390.89,221.82,390.61,222.05,390.37z"/>
<path class="st9" d="M179.5,303.74c0.41,0.04,0.81,0.08,1.22,0.12c-0.17,0.23-0.35,0.46-0.52,0.69
	C179.97,304.29,179.73,304.01,179.5,303.74z"/>
<path class="st9" d="M226.06,402.36c-0.36-0.35-0.71-0.71-1.07-1.06C225.35,401.65,225.7,402.01,226.06,402.36z"/>
<path class="st5" d="M340.4,218.3c-1.45,0.14-2.82,0.28-4.26,0.42c0.59,1.78,1.06,3.17,1.52,4.56c-5.22-0.97-7.82,3.81-11.81,5.61
	l-0.91,0.35c-0.5,0.16-0.96,3.02-0.48,3.39c4.91,3.8,0.74,5.49-1.59,7.63c-3.3-3.18-7.27-5.91-9.77-9.63
	c-4.65-6.92-11.66-7.05-18.59-8.5c-2.47-0.51-4.36-3.75-6.51-5.74c-0.66-0.01-1.32-0.02-1.98-0.03c-1.86,1.07-3.59,2.7-5.59,3.13
	c-6.04,1.29-9.37,6.15-10.81,10.78c-1.91,6.13-5.82,8.38-10.97,10.05c-3.45,1.13-7.19,1.64-10.39,3.24
	c-4.94,2.47-9.02,2.68-12.42-2.24c5.26-7.5,0.33-14.79-0.6-22.11c-0.92-7.3-2.34-14.37,0.91-21.63c2.77-6.18,3.03-11.99-3.86-17.21
	c-1.83-1.39-2.45-4.66-3.16-7.19c-0.9-3.21-1.32-6.55-1.95-9.84c-0.39-6.6-0.34-12.98,6.72-16.64c0.59-0.3,1.01-1.89,0.78-2.66
	c-1.95-6.52,1.99-9.06,7.1-10.9c0.14,3.29,0.28,6.59,0.47,10.98c5.72-3.77,9.66-1.69,13.89,0.22c5.17,2.33,10.66,3.97,16.02,5.87
	c0.61,0.22,1.47-0.05,1.96,0.28c8.06,5.47,16.43,1.51,24.71,1.03c1.86-0.11,4.23,2.16,5.62,1.57c5.03-2.14,9.93,0.38,14.83-0.36
	c0.6,5.82,1.05,11.66,1.92,17.43c0.19,1.23,1.9,3.18,2.9,3.18c5.31-0.03,7.17,3.42,9.25,7.43c1.54,2.97,1.11,7.23,5.27,8.83
	c0.48,0.18,0.15,2.74,0.01,4.17c-0.1,1.09-1.06,2.77-0.68,3.12c3.43,3.09,0.67,5.53-0.99,8.12
	C344.56,208.04,338.21,214.1,340.4,218.3z"/>
<path class="st0" d="M275.04,322.38c0.27-0.06,0.53-0.08,0.8-0.06c2.37-0.75,4.74-1.49,7.43-2.34c0.35,2.64,0.56,4.19,0.77,5.74
	c-0.97,2.2-1.95,4.4-2.92,6.6c-1.01,0.02-2.02,0.04-3.03,0.06C276.78,329.14,277.88,325.15,275.04,322.38z"/>
<g>
	<path class="st10" d="M259,408.32c-0.01,0-0.02,0.01-0.03,0.01c0,0.01-0.01,0.01-0.01,0.02L259,408.32z"/>
	<path class="st10" d="M291.96,352.34c0.01,0.03,0.01,0.06,0.01,0.09c0.03,0,0.05,0,0.08,0
		C292.06,352.43,291.96,352.34,291.96,352.34z"/>
	<path class="st5" d="M294.8,356.66c-0.18-0.93-1.67-1.55-2.38-2.45c-0.34-0.44-0.32-1.17-0.44-1.78c-1.17,0-2.34,0-2.95,0
		c-0.63-4.05-1.17-7.57-1.72-11.09c-1.22-0.06-2.84-3.22-3.59,0.46c-1.49-0.6-3.86-0.83-4.29-1.87c-0.96-2.3-0.95-5-1.33-7.54
		c-1.31-3.24-0.22-7.23-3.06-10c-1.81,0-3.62,0-5.73,0c-0.17-1.54-0.37-3.3-0.6-5.37c-6.14-1.03-8.54,3.66-10.64,7.6
		c-2.2,4.12-3.45,8.64-9.2,8.84c0.02,0.33,0.08,0.66,0.07,0.99c-0.2,5.88-2.36,11.77,1.68,17.51c1.33,1.9,0.97,5.53,0.36,8.12
		c-0.67,2.82-2.54,5.35-3.89,8c-3.7,10.96,0.18,20.97,2.6,31.41c1.82-3.29,3.14-5.69,4.46-8.08v0c0.52,0,1.04,0,1.55-0.01
		c-0.66,2.06-1.32,4.11-1.97,6.17c0.26,0.34,0.53,0.68,0.79,1.02c0.85-0.74,1.74-1.43,2.53-2.23c1.64-1.67,3.23-3.4,4.84-5.1
		c0.36-0.35,0.73-0.71,1.09-1.06c0.02,0.41,0.04,0.82,0.06,1.24h0c-0.07,0.26-0.22,0.45-0.46,0.57c-2.44,5.66-8.34,9.95-7.11,17.42
		c1.42-0.43,2.47-0.75,3.51-1.07c0.34-0.51,0.69-1.02,1.03-1.52c0.18,0.18,0.37,0.37,0.55,0.56c2.11-0.95,2.11-0.95,0,0
		c-0.16,0.46-0.32,0.93-0.48,1.39c-0.05,0.6-0.1,1.21-0.16,1.82c5.33,3.58,9.67,2.69,12.24-2.9c1.62-3.51,2.4-7.41,3.97-10.95
		c1.23-2.78,3.1-5.27,4.67-7.87c3,2.61,5.23,2.06,7.17-1.98c0.61-1.28,0.75-3.3,1.71-3.8c5.02-2.58,7.27-6.92,7.22-12.08
		C296.84,366.21,295.72,361.41,294.8,356.66z M265.99,350.35C265.99,350.35,265.99,350.35,265.99,350.35
		C265.98,350.34,265.98,350.34,265.99,350.35C265.98,350.34,265.98,350.34,265.99,350.35z M264.36,401.15
		c-0.13,0-0.28-0.63-0.42-0.97c0.43-0.14,0.86-0.31,1.31-0.37c0.07-0.01,0.21,0.52,0.36,0.94
		C265.19,400.9,264.77,401.15,264.36,401.15z M287.21,353.25c-0.26,0.02-0.55-0.16-0.82-0.26c0.18-0.18,0.34-0.49,0.53-0.52
		c0.26-0.03,0.55,0.16,0.89,0.28C287.59,352.94,287.41,353.23,287.21,353.25z"/>
</g>
<path class="st5" d="M265.61,400.75c-0.42,0.15-0.83,0.4-1.25,0.41c-0.13,0-0.28-0.63-0.42-0.97c0.43-0.14,0.86-0.31,1.31-0.37
	C265.31,399.8,265.45,400.33,265.61,400.75z"/>
<path class="st5" d="M287.8,352.75c-0.21,0.19-0.39,0.48-0.59,0.5c-0.26,0.02-0.55-0.16-0.82-0.26c0.18-0.18,0.34-0.49,0.53-0.52
	C287.18,352.44,287.46,352.63,287.8,352.75z"/>
<path class="st9" d="M262.97,390.18c0.02,0.41,0.04,0.82,0.06,1.24c-0.07,0.26-0.22,0.45-0.46,0.57c-0.23-0.25-0.46-0.49-0.69-0.74
	C262.24,390.88,262.6,390.53,262.97,390.18z"/>
<path class="st11" d="M265.99,350.35c-0.06,0.1-0.12,0.2-0.18,0.3c0.07-0.09,0.14-0.18,0.21-0.27
	C266.02,350.38,265.99,350.35,265.99,350.35z"/>
<path class="st9" d="M300.34,390.56c0.44-0.51,0.88-1.03,1.32-1.54c0.26,0.26,0.53,0.52,0.79,0.77c-0.36,0.64-0.73,1.28-1.09,1.91
	C301.02,391.32,300.68,390.94,300.34,390.56z"/>
<path class="st9" d="M301.66,389.02c0.27-0.16,0.54-0.31,0.81-0.47c-0.01,0.41-0.02,0.82-0.02,1.24
	C302.18,389.53,301.92,389.28,301.66,389.02z"/>
<path class="st0" d="M238.14,387.5c-0.78-1.3-1.55-2.6-2.33-3.9c0.46-0.28,0.91-0.56,1.37-0.83c0.82,1.27,1.64,2.54,2.47,3.82
	C239.15,386.89,238.65,387.19,238.14,387.5z"/>
<path class="st0" d="M281.13,332.32c0.97-2.2,1.95-4.4,2.92-6.6c0.56-1.29,1.11-2.59,1.8-4.18c4.7-0.46,4.74,2.83,4.66,5.79
	c-1.89,1.34-3.5,2.48-5.11,3.62c-0.45,1.56-0.89,3.13-1.65,5.79C282.45,334.55,281.79,333.43,281.13,332.32z"/>
<path class="st9" d="M213.2,393.43c0.93,0.36,1.86,0.73,2.79,1.09C215.06,394.16,214.13,393.79,213.2,393.43z"/>
<path class="st0" d="M284.43,258.61c3.7,0.21,6.79,3.66,6.63,7.42c-0.16,3.91-3.35,7-7.12,6.9c-4.01-0.1-7.2-3.64-6.89-7.63
	C277.34,261.49,280.74,258.4,284.43,258.61z"/>
<path class="st4" d="M313.1,230.63c-4.65-6.91-11.66-7.05-18.6-8.5c-2.46-0.51-4.35-3.75-6.51-5.74c-0.66-0.01-1.32-0.03-1.98-0.04
	c-1.86,1.08-3.59,2.71-5.59,3.13c-6.04,1.29-9.38,6.15-10.82,10.78c-1.91,6.13-5.81,8.38-10.96,10.05
	c-3.46,1.12-7.19,1.63-10.39,3.24c-4.94,2.47-9.02,2.68-12.41-2.24c-9.08,3.38-2.99,10.23-3.4,15.48
	c-6.36,3.02-15.01,1.23-19.63-3.71c-1.38-1.47-3.27-2.47-4.92-3.69c-1.06,3.47-2.17,6.92-3.16,10.41c-1.46,5.15-0.08,6.83,4.88,8.91
	c2.81,1.18,5.35,3.59,7.32,6.02c1.54,1.91,1.43,6.15,3.07,6.8c4.67,1.85,3.8,5.71,4.75,9.02c0.58,2.02,0.96,4.33,2.21,5.89
	c2.86,3.59,3.83,7.46,3.98,11.99c0.08,2.51,1.54,5.14,2.9,7.4c3.04,5.02,6.41,9.84,10.05,15.36c0.95,0.43,2.97,1.34,4.98,2.25
	c5.75-0.21,7-4.72,9.2-8.84c2.11-3.94,4.51-8.63,10.64-7.6c0.23,2.07,0.43,3.83,0.6,5.37c2.11,0,3.92,0,5.73,0
	c0.27-0.06,0.53-0.08,0.8-0.06c-0.04-5.08,2.39-6.73,7.37-6.03c2.65,0.37,5.95,0.88,7.59-2.56c0.89-1.74,1.8-3.46,2.66-5.21
	c2-4.07,3.54-8.18,0.45-12.44c-0.72-2.79-1.43-5.58-2.15-8.37c1.82-5.14,5.93-6.89,12.21-6.57c-1.61-2.32-2.42-3.46-3.21-4.61
	c-2.81-4.09-2.27-5.75,1.84-8.45c1.23-0.81,1.5-3,2.37-4.46c1.95-3.26,3.3-8.22,6.15-9.35c6.86-2.73,9.98-7.54,11.74-14.01
	C319.57,237.08,315.6,234.35,313.1,230.63z M283.94,272.93c-4.01-0.1-7.2-3.64-6.89-7.63c0.29-3.82,3.69-6.9,7.38-6.69
	c3.7,0.21,6.79,3.66,6.63,7.42C290.9,269.94,287.71,273.03,283.94,272.93z"/>
<path class="st4" d="M235.85,241.32c5.26-7.51,0.32-14.79-0.6-22.12c-0.92-7.3-2.35-14.37,0.91-21.63
	c2.77-6.18,3.02-11.99-3.86-17.21c-1.83-1.39-2.45-4.66-3.16-7.19c-0.9-3.21-1.33-6.55-1.96-9.84c-5.54-0.69-11.1-1.31-16.62-2.16
	c-0.91-0.14-1.64-1.36-2.48-2.05c-1.09-0.89-2.1-2.31-3.33-2.53c-5.44-1-8.63-4.47-8.44-9.82c-5.01-1.14-10.05-2.29-15.08-3.44
	c-1.56,2.77-3.11,5.53-4.49,7.98c-2.3-0.49-4.48-1.15-6.7-1.37c-1.77-0.17-4.33,1.01-5.26,0.17c-4.52-4.08-8.31-1.34-12.48,0.63
	c-1.2-0.55-2.59-1.75-3.88-1.65c-1.56,0.12-3.98,1.03-4.35,2.15c-0.87,2.62-0.43,5.65-1.09,8.38c-0.61,2.51-1.47,5.29-3.14,7.12
	c-2.03,2.23-5.01,3.59-7.69,5.4c-4.65-5.36-4.65-5.36-10.06-2.23c-0.14,2.31,0.43,4.79-0.52,6.36c-2.32,3.83-5.49,7.13-7.98,10.87
	c-0.75,1.12-0.91,3.22-0.39,4.47c0.99,2.38,2.51,4.59,4.08,6.68c3.26,4.34,5.78,9.61,12.39,9.94c1.05,0.05,2.28,1.21,3,2.17
	c3.39,4.52,6.42,4.92,10.67,1.21c1.83,4.67,4.78,7.03,10.27,7.2c8.62,0.27,9.41,0.6,9.27,9.23c-0.01,0.33-0.04,0.66-0.07,1
	c4.31,1.42,8.58,3.89,12.93,4.02c5.9,0.17,9.05,2.2,10.68,7.76c1.2,4.09,6.56,7.5,9.55,5.91c5.07-2.69,8.45-0.36,11.94,2.67
	c1.65,1.22,3.54,2.21,4.92,3.69c4.62,4.95,13.27,6.73,19.63,3.71C232.86,251.55,226.77,244.7,235.85,241.32z"/>
<text transform="matrix(1 0 0 1 177.376 118.5426)" class="st1 st2 st3">Rangpur</text>
<text transform="matrix(1 0 0 1 253.3293 270.0506)" class="st1 st2 st15">Dhaka</text>
<g>
	<text transform="matrix(1 0 0 1 249.3218 300.3664)" class="st1 st2 st3">Dhaka</text>
</g>
<g>
	<text transform="matrix(1 0 0 1 256.4969 380.9171)" class="st1 st2 st3">Barisal</text>
</g>
<text transform="matrix(1 0 0 1 171.2768 284.8966)" class="st1 st2 st3">Khulna</text>
<text transform="matrix(1 0 0 1 259.136 176.8229)" class="st1 st2 st3">Mymensingh</text>
<g>
	<path class="st16" d="M269.59,206.54c6.25,0.35,11.46,6.18,11.2,12.53c-0.27,6.6-5.66,11.82-12.02,11.65
		c-6.76-0.17-12.16-6.14-11.64-12.88C257.63,211.39,263.37,206.19,269.59,206.54z"/>
	<path class="st17" d="M263.01,248.13c-3.57-5.04-6.84-10.32-10.77-15.06c-10.78-13.01-4.3-32.5,12.17-35.95
		c9.13-1.91,16.62,1.13,22.1,8.44c5.64,7.52,5.94,15.77,1.42,23.97c-1.38,2.5-3.74,4.45-5.41,6.82c-2.79,3.94-5.39,8-8.06,12.02
		c-0.25,0.51-0.51,1.02-0.76,1.53c-1.33,3.54-2.65,7.09-3.98,10.63c-0.34,0.77-0.68,1.54-1.02,2.32c-0.45-1.06-0.9-2.11-1.34-3.17
		c-1.06-2.97-2.12-5.95-3.19-8.92c-0.28-0.55-0.55-1.09-0.83-1.64C263.23,248.78,263.12,248.46,263.01,248.13z M257.32,218.58
		c0,6.43,5.05,11.64,11.39,11.75c6.51,0.11,11.89-5.18,11.87-11.7c-0.01-6.59-5.27-11.8-11.83-11.72
		C262.37,206.99,257.31,212.15,257.32,218.58z"/>
</g>
<g>
	<path class="st16" d="M193.67,79.3c3.62,0.2,6.63,3.57,6.48,7.25c-0.16,3.82-3.27,6.84-6.95,6.74c-3.91-0.1-7.03-3.55-6.73-7.45
		C186.75,82.11,190.07,79.1,193.67,79.3z"/>
	<path class="st17" d="M189.87,103.37c-2.07-2.91-3.96-5.97-6.23-8.71c-6.24-7.53-2.49-18.81,7.04-20.8
		c5.28-1.11,9.62,0.65,12.79,4.88c3.26,4.35,3.44,9.12,0.82,13.87c-0.8,1.45-2.16,2.58-3.13,3.95c-1.61,2.28-3.12,4.63-4.67,6.95
		c-0.15,0.3-0.29,0.59-0.44,0.89c-0.77,2.05-1.53,4.1-2.3,6.15c-0.2,0.45-0.39,0.89-0.59,1.34c-0.26-0.61-0.52-1.22-0.78-1.84
		c-0.61-1.72-1.23-3.44-1.84-5.16c-0.16-0.32-0.32-0.63-0.48-0.95C189.99,103.74,189.93,103.55,189.87,103.37z M186.57,86.27
		c0,3.72,2.92,6.73,6.59,6.8c3.77,0.07,6.88-3,6.87-6.77c-0.01-3.82-3.05-6.82-6.85-6.78C189.5,79.56,186.57,82.55,186.57,86.27z"/>
</g>
<g>
	<path class="st16" d="M378.07,146.57c3.73,0.21,6.85,3.69,6.69,7.48c-0.16,3.94-3.38,7.06-7.18,6.96c-4.04-0.1-7.26-3.67-6.95-7.69
		C370.93,149.47,374.35,146.36,378.07,146.57z"/>
	<path class="st17" d="M374.14,171.41c-2.13-3.01-4.08-6.16-6.43-8.99c-6.44-7.77-2.57-19.41,7.27-21.47
		c5.45-1.14,9.93,0.67,13.2,5.04c3.37,4.49,3.55,9.42,0.85,14.31c-0.83,1.5-2.23,2.66-3.23,4.07c-1.66,2.35-3.22,4.78-4.81,7.18
		c-0.15,0.3-0.3,0.61-0.46,0.91c-0.79,2.12-1.58,4.23-2.37,6.35c-0.2,0.46-0.41,0.92-0.61,1.38c-0.27-0.63-0.53-1.26-0.8-1.89
		c-0.63-1.78-1.27-3.55-1.9-5.33c-0.17-0.33-0.33-0.65-0.5-0.98C374.27,171.8,374.21,171.6,374.14,171.41z M370.74,153.76
		c0,3.84,3.02,6.95,6.8,7.02c3.89,0.07,7.1-3.1,7.09-6.99c-0.01-3.94-3.14-7.04-7.07-7C373.76,146.84,370.74,149.92,370.74,153.76z"
		/>
</g>
<path class="st0" d="M344.4,208.57c-0.31,2.23-3.58,14.58-3.58,14.58l-14.97,5.74l-0.91,0.35c0,0,0.73-2.57-2.07-6.09
	c-2.79-3.52-4.82-17.12-5.14-20.93c-0.32-3.81,1.55-13.02,1.55-13.02s-10.76-20.64-14.38-20c-3.63,0.63-11.62,0-22.42-9.22
	c-10.79-9.23-40.23-15.86-40.23-15.86c5.72-3.77,9.66-1.69,13.89,0.22c5.17,2.33,10.66,3.97,16.02,5.87
	c0.61,0.22,1.47-0.05,1.96,0.28c8.06,5.47,16.43,1.51,24.71,1.03c1.86-0.11,4.23,2.16,5.62,1.57c5.03-2.14,9.93,0.38,14.83-0.36
	c0,0,16.55,9.48,17.82,10.61c1.27,1.14,5.72,15.38,7.3,19.51C345.99,186.98,344.72,206.35,344.4,208.57z"/>
<path class="st0" d="M443.08,444.92c-1.85,1.36-3.74,2.75-6.11,4.49c-0.61-2.67-1.16-5.14-1.73-7.59c-0.68-2.89-1.91-3.42-4.45-1.49
	c-2.47,1.89-4.6,2.42-5.09-2.09c-0.35-3.27-3.41-3.76-6.15-1.57c-1.24,0.99-2.87,1.49-4.31,2.21c-1.25,1.63-2.78,3.41-4.02,5.37
	c-0.54,0.86-1.07,2.48-0.64,3.1c2.96,4.32,0.05,6.7-2.9,9.19c0.12,0.48,0.1,1.01,0.36,1.35c3.45,4.5,4.67,9.43,5.37,15.19
	c0.72,5.97,4.48,11.57,6.91,17.34c-0.44,0.06-0.89,0.13-1.33,0.19c-3.39-6.45-6.64-12.98-10.23-19.31c-2.67-4.7-5.78-9.15-8.71-13.7
	c-0.61-0.94-1.66-1.74-1.89-2.74c-1.55-7.04-2.93-14.12-4.37-21.18c-0.55,0.26-1.11,0.52-1.67,0.79c-2.38-0.97-4.77-1.94-6.51-2.65
	c0.96-4.19,1.67-7.32,2.39-10.45c2.07-3.89,4.15-7.77,6.55-12.27c-1.4,0.75-3.17,1.14-3.33,1.87c-0.83,3.83-2.29,0.18-3.35,0.42
	c4.24-7.75-1.29-14.37-2.73-21.39c-1.15-5.63-2.76-11.2-4.6-16.68c0-0.01,0-0.01,0-0.01l15.67-14.52c0,0,17.69-0.35,21.33-1.91
	c3.65-1.56,10.43-10.51,10.43-10.51l0.06-13c0.19,3.17,2.04,6.21,2.86,9.39c0.72,2.77,1.06,5.65,1.54,8.49
	c1.59,9.38,2.45,18.96,5.06,28.04c1.1,3.8,0.03,4-2.39,4.83c1.5,5.54,3.55,11.01,4.31,16.65c0.5,3.68-1.13,7.6-1.35,11.44
	C437.41,423.39,439.27,434.23,443.08,444.92z"/>
<path class="st4" d="M434.19,362.82l-24.01,11.94l-9.24,4.59l-3.16,1.57l-14.55,1.16c-0.81-2.94-1.72-5.86-2.69-8.76
	c0-0.01,0-0.01,0-0.01c-0.63-1.88-1.28-3.75-1.96-5.6c-1.8-4.94-4.22-9.84-7.26-14.12c-3.8-5.36-8.5-10.08-12.3-14.46l5.7-19.7
	c0.43,0.63,0.95,1.2,1.53,1.56c4.49,2.78,15.79-0.82,16.24-5.8c0.37-4.06-1.53-8.5-3.12-12.5c-1.19-3.01-0.91-5.02,1.52-6.96
	c3.14-2.49,6.52-4.77,9.25-7.65c3.19-3.37,1.53-7.68,0.74-11.45c-0.13-0.62-0.24-1.22-0.31-1.81c1.14-1.67,2.26-3.29,3.34-4.83
	c1.21,1.22,2.4,2.42,3.59,3.62c0.37-0.47,0.74-0.94,1.11-1.41c2.57-2.17,5.14-4.34,8.05-6.79c1.07,1.87,2.36,4.14,3.74,6.55
	c0.63-2.06,1.2-3.93,1.77-5.8h0.99c3.2,12.12,6.4,24.24,9.2,34.86c-1.01,2.66-2.14,4.18-2.04,5.62c0.35,5.61,1.09,11.2,1.78,17.64
	c3.09,1.33,5.64,4.13,5.93,9.09c0.19,3.17,2.04,6.21,2.86,9.39c0.72,2.77,1.06,5.65,1.54,8.49
	C433.08,355.09,433.61,358.96,434.19,362.82z"/>
<g>
	<path class="st16" d="M391.48,272.81c6.25,0.35,11.46,6.18,11.2,12.53c-0.27,6.6-5.66,11.82-12.02,11.65
		c-6.76-0.17-12.16-6.14-11.64-12.88C379.51,277.67,385.25,272.46,391.48,272.81z"/>
	<path class="st17" d="M384.9,314.41c-3.57-5.04-6.84-10.32-10.77-15.06c-10.78-13.01-4.3-32.5,12.17-35.95
		c9.13-1.91,16.62,1.13,22.1,8.44c5.64,7.52,5.94,15.77,1.42,23.97c-1.38,2.5-3.74,4.45-5.41,6.82c-2.79,3.94-5.39,8-8.06,12.02
		c-0.25,0.51-0.51,1.02-0.76,1.53c-1.32,3.54-2.65,7.09-3.97,10.63c-0.34,0.77-0.68,1.54-1.02,2.32c-0.45-1.06-0.9-2.11-1.34-3.17
		c-1.06-2.97-2.12-5.95-3.19-8.92c-0.28-0.55-0.55-1.09-0.83-1.64C385.11,315.06,385,314.73,384.9,314.41z M379.2,284.86
		c0,6.43,5.05,11.64,11.39,11.75c6.51,0.11,11.89-5.18,11.87-11.7c-0.01-6.59-5.27-11.8-11.83-11.72
		C384.26,273.27,379.2,278.43,379.2,284.86z"/>
</g>
<text transform="matrix(1 0 0 1 361.6509 336.3954)" class="st1 st2 st3">Chittagong</text>
<path class="st4" d="M366.95,226.34c0,0-0.14,2.25,0,3.36c0.13,1.11-3.28,6.89-3.28,6.89c-2.59-0.13-6.29-0.7-11.75-1.55
	c-0.29,2.96-0.58,5.93-0.88,9.03c-1.58-0.3-2.81-0.53-4.04-0.77c-0.68-3.18-1.56-6.34-2-9.56c-0.32-2.39-0.06-4.87-0.06-7.49
	c-2.18-0.89-4.73-1.93-7.28-2.97c-0.46-1.39-0.93-2.78-1.52-4.56c1.44-0.14,2.81-0.28,4.26-0.42c-2.19-4.2,4.16-10.26-3.44-13.29
	c1.66-2.59,4.42-5.03,0.99-8.12c-0.38-0.35,0.58-2.03,0.68-3.12c0.14-1.43,0.47-3.99-0.01-4.17c-4.16-1.6-3.73-5.86-5.27-8.83
	c-2.08-4.01-3.94-7.46-9.25-7.43c-1,0-2.71-1.95-2.9-3.18c-0.87-5.77-1.32-11.61-1.92-17.43c2.67-0.99,5.29-2.65,8.01-2.82
	c6.4-0.42,12.72-1.75,19.33,0.2c3.36,0.99,6.87,2.76,10.48,2.85c-0.01,0.01-0.01,0.01-0.01,0.01v17.01c0,0-4.49,6.06-3.7,11.33
	c0.79,5.26,7.31,20.01,8.26,21.85c0.95,1.85,7.18,10.01,7.18,10.01L366.95,226.34z"/>
<text transform="matrix(1 0 0 1 273.7221 445.7947)"><tspan x="0" y="0" class="st2 st18">Green color strong reach</tspan><tspan x="0" y="13" class="st2 st18">yellow color medium reach</tspan><tspan x="0" y="26" class="st2 st18">red color vacant</tspan></text>
<path class="st4" d="M270.87,442.59c0,1.39-1.13,2.52-2.52,2.52s-2.52-1.13-2.52-2.52s1.13-2.52,2.52-2.52
	S270.87,441.2,270.87,442.59z"/>
<path class="st5" d="M270.87,457.41c0,1.39-1.13,2.52-2.52,2.52s-2.52-1.13-2.52-2.52s1.13-2.52,2.52-2.52
	S270.87,456.02,270.87,457.41z"/>
<path class="st0" d="M270.87,469.74c0,1.39-1.13,2.52-2.52,2.52s-2.52-1.13-2.52-2.52c0-1.39,1.13-2.52,2.52-2.52
	S270.87,468.34,270.87,469.74z"/>
<path class="st6" d="M187.99,412.3h0.06c0,0.02,0.01,0.04,0.01,0.06L187.99,412.3z"/>
<path class="st6" d="M215,403.43h-0.07c0-0.03,0.01-0.05,0.01-0.08L215,403.43z"/>
<path class="st0" d="M250.97,360.07c-0.67,2.81-2.54,5.34-3.89,8c-0.89,0.54-2.13,0.87-2.61,1.66c-1.08,1.75-1.78,3.74-2.64,5.62
	c-1.88-1.6-3.75-3.2-6.12-5.22c-4.4,2.68,2.26,5.46,0.46,8.68c-1.88,1.37-4.27,3.11-6.54,4.77v9.26h4.91
	c0.15,0.45,0.29,0.9,0.44,1.34c-1.16,0.51-2.32,1.02-3.48,1.52c-1.61,0.68-3.79,1.1-1.48,3.45c-0.54,1.18-1.08,2.36-1.65,3.61
	c-0.56-0.11-1.45-0.28-2.35-0.46l0.04,0.06c-0.35-0.34-0.69-0.68-1.04-1.03c-4.39-2.21-1.98-6.19-2.4-9.44
	c0.22-0.49,0.44-0.98,0.67-1.47c-0.05-1.66-0.03-3.33-0.17-4.98c-0.12-1.51-0.41-3.01-0.62-4.52c0.91-1.3,1.82-2.61,2.73-3.91
	c-0.39-0.27-0.79-0.53-1.19-0.8c-0.77,1.3-1.55,2.6-2.32,3.91c-0.27,1.53-0.8,3.08-0.73,4.59c0.09,1.9,0.69,3.78,1.06,5.67
	c-0.23,0.23-0.31,0.51-0.23,0.83c-0.87,1.9-1.75,3.8-2.62,5.7c-0.33-0.11-0.66-0.21-0.99-0.31v-2.22c1.73-3.97,0.76-6.9-2.36-8.41
	c-0.95,2.13-1.91,4.26-2.86,6.4c-0.97,1.33-2.88,2.79-2.72,3.98c0.33,2.42,1.76,4.68,2.74,7.02c0.65,0.02,1.28,0.04,1.92,0.06
	c-0.53,3.21-1.06,6.42-1.59,9.62c0.48,0.17,0.97,0.34,1.45,0.5c-1.7,2.02-3.4,4.03-5.46,6.47c-1.46-2.65-2.55-4.61-3.63-6.57
	c0.46-4.69,0.92-9.38,1.38-14.07c5.51-9.83-2.15-17-4.96-26.33c-0.7,2.02-1.57,3.36-1.25,3.76c4.34,5.47-1.23,8.52-2.91,12.49
	c-0.42,1.01-0.94,2-1.2,3.05c-0.92,3.62-1.75,7.27-2.62,10.91c-0.47-0.02-0.95-0.04-1.43-0.05c-0.17-1.77-0.35-3.54-0.52-5.3
	c-1.19,1.47-2.35,3.59-1.73,4.65c0.78,1.32,3.03,1.78,4.02,2.29c-0.85,2.48-1.68,4.89-2.5,7.29c-1.31,0.05-2.62,0.1-3.93,0.16
	c-0.09-0.62-0.16-1.24-0.25-1.85c-0.35-3.06-0.7-6.11-1.05-9.17c-0.23-2.62-0.41-5.24-0.69-7.85c-0.14-1.29-1.06-2.95-0.55-3.78
	c2.17-3.52-0.08-6.05-1.3-8.98c-1.62-3.91-3.17-7.91-4.12-12.02c-0.49-2.15,0.37-4.61,1.17-6.89c-2.41-5.3-6.32-10.45-3.35-17.22
	c0.19-0.43-0.71-1.27-0.96-1.97c-0.42-1.18-1.39-2.73-0.98-3.56c2.45-5.06-0.21-8.55-2.46-12.88c-4.6-8.84-2.7-13.58,6.69-21.57
	c0.17-0.23,0.35-0.46,0.52-0.69l32.29,30.1c0,0,25.61,3.02,26.64,4.19c1.03,1.17,7.3,5.29,7.3,5.29l1.34,2.33
	c0.23,2.07,0.88,4.13,2.32,6.17C251.95,353.85,251.59,357.48,250.97,360.07z"/>
</svg>
